<svg xmlns="http://www.w3.org/2000/svg" xmlns:xlink="http://www.w3.org/1999/xlink" viewBox="0 0 207.21 69.1"><defs><style>.cls-1{fill:url(#Unbenannter_Verlauf_7);}.cls-2{fill:#fcfcfc;}</style><linearGradient id="Unbenannter_Verlauf_7" x1="28.2" y1="4.19" x2="25.93" y2="69.54" gradientUnits="userSpaceOnUse"><stop offset="0" stop-color="#00f0dd"/><stop offset="0.17" stop-color="#2ec4e4"/><stop offset="0.47" stop-color="#787ef0"/><stop offset="0.72" stop-color="#ae4bf8"/><stop offset="0.9" stop-color="#cf2bfd"/><stop offset="1" stop-color="#dc1fff"/></linearGradient></defs><title>Element 6</title><g id="Ebene_2" data-name="Ebene 2"><g id="Ebene_1-2" data-name="Ebene 1"><path class="cls-1" d="M28.21,69.1a9.4,9.4,0,0,1-9.4-9.39,9.29,9.29,0,0,1,.5-3,9.31,9.31,0,0,1-7.12-10.5,8.27,8.27,0,0,1,.39-1.56,9.42,9.42,0,0,1-4.86-2.91A9.23,9.23,0,0,1,6,32.21,9.37,9.37,0,0,1,9.36,14.09a9.37,9.37,0,0,1,6.1,2.24,9,9,0,0,1,.94-.73l.39-.21.18-.1A10.19,10.19,0,0,1,18,14.77l.45-.15.2-.06a11.24,11.24,0,0,1,1.1-.3l.43,0,.19,0a8.77,8.77,0,0,1,1.15-.09c.17,0,.3,0,.44,0l.19,0a9.43,9.43,0,0,1,1.19.14,3.31,3.31,0,0,1,.45.12l.21.06a8.34,8.34,0,0,1,1.06.34c.22.09.42.2.63.31l.2.11.23.12a2.88,2.88,0,0,1,.46.24c.24.17.4.3.55.42-1-4.71-2.88-10.94-8.21-12.64a11.19,11.19,0,0,0-3.42-.68c-2.71,0-5.45,1.55-10.1,5.7A1.34,1.34,0,0,1,3.19,7.32a1.28,1.28,0,0,1,.44-.92C8.78,1.79,12.11,0,15.49,0a13.13,13.13,0,0,1,4.32.83c3.1,1.06,5.15,2.7,7.26,6.53a27.28,27.28,0,0,0,4.12.33h0c9.67,0,12.47-6,12.58-6.24A1.35,1.35,0,0,1,45,.66a1.25,1.25,0,0,1,.54.12,1.33,1.33,0,0,1,.69,1.76c-.14.32-3.58,7.85-15,7.85a26,26,0,0,1-2.95-.19A39.45,39.45,0,0,1,29.66,15a9.66,9.66,0,0,1,4-.88,9.25,9.25,0,0,1,5,1.49,7.29,7.29,0,0,1,.93.71,9.38,9.38,0,0,1,14.65,11,9.28,9.28,0,0,1-3.08,3.8,9.31,9.31,0,0,1,1.14,5.52,9.46,9.46,0,0,1-8.46,8.33,8.78,8.78,0,0,1,.42,2A9.36,9.36,0,0,1,42,53.75a9.21,9.21,0,0,1-4.94,3,9.08,9.08,0,0,1,.51,3A9.41,9.41,0,0,1,28.21,69.1Zm0-16.1a6.71,6.71,0,1,0,0,13.41h.28A6.71,6.71,0,0,0,28.21,53ZM21.45,40.92a6.71,6.71,0,0,0-5.38,10.69,6.73,6.73,0,0,0,4.48,2.66A9.48,9.48,0,0,1,26,50.58a9.14,9.14,0,0,1-.49-2.24,9.42,9.42,0,0,1,1-5.06A6.7,6.7,0,0,0,21.45,40.92Zm7.32,9.43a9.39,9.39,0,0,1,7.08,3.91,6.7,6.7,0,0,0-.93-13.34l-.52,0a6.7,6.7,0,0,0-5.63,9.41ZM43,42.26a6.71,6.71,0,0,0,.72-13.38,6.12,6.12,0,0,0-.74,0,6.7,6.7,0,0,0-6,9.67,9.4,9.4,0,0,1,5.6,3.73ZM14.77,28.83a6.72,6.72,0,0,0-4.44,1.68A6.71,6.71,0,0,0,9.73,40a6.7,6.7,0,0,0,3.93,2.18l.2,0a9.33,9.33,0,0,1,2-2.11A9.16,9.16,0,0,1,19,38.59a9.07,9.07,0,0,1-.36-1.26,9.31,9.31,0,0,1,1-6.45A6.73,6.73,0,0,0,14.77,28.83Zm7,9.45a9.35,9.35,0,0,1,6.37,2.82A9.36,9.36,0,0,1,34,38.29a9.37,9.37,0,0,1,0-5.45,6.57,6.57,0,0,0-2.53-3.09,6.72,6.72,0,0,0-9.27,2,6.54,6.54,0,0,0-.39,6.55ZM27.88,26a9.22,9.22,0,0,1,5,1.47A9,9,0,0,1,35.44,30a9.2,9.2,0,0,1,2-2,7.59,7.59,0,0,1-.53-1.12,9.3,9.3,0,0,1,.92-8.56,4.64,4.64,0,0,0-.61-.46,6.6,6.6,0,0,0-3.63-1.08A6.7,6.7,0,0,0,27,24.85,5.9,5.9,0,0,0,27.41,26ZM9.37,16.77A6.7,6.7,0,0,0,4.64,28.21a6.74,6.74,0,0,0,2.69,1.63,9,9,0,0,1,1.23-1.35,9.39,9.39,0,0,1,4-2,8.3,8.3,0,0,1-.27-.94l0-.18a9,9,0,0,1-.19-1.68,9.18,9.18,0,0,1,.61-3.5c0-.09.07-.18.11-.27a11.93,11.93,0,0,1,.64-1.25,2.41,2.41,0,0,1,.14-.26l0-.06A6.74,6.74,0,0,0,9.37,16.77ZM43,26.16a8.22,8.22,0,0,1,1,.06A9.36,9.36,0,0,1,49.6,28.9,6.71,6.71,0,0,0,51.93,21a6.72,6.72,0,0,0-12.41-.28,6.66,6.66,0,0,0-.11,5.13,6.4,6.4,0,0,0,.39.84A9.31,9.31,0,0,1,43,26.16Zm-27.65,0a9.35,9.35,0,0,1,5.86,2.54,9.5,9.5,0,0,1,3.52-2.19,11.31,11.31,0,0,1-.33-1.13,9.34,9.34,0,0,1,1.3-7.06l0-.05a6.73,6.73,0,0,0-4.28-1.53,6.6,6.6,0,0,0-4.61,1.86A6.69,6.69,0,0,0,15.35,26.2Z"/><path class="cls-2" d="M86.28,37.59h5.91V48.92a16.72,16.72,0,0,1-5.27,2.64,20.45,20.45,0,0,1-6,.91,16.27,16.27,0,0,1-7.82-1.85,13.86,13.86,0,0,1-5.45-5.15,14.21,14.21,0,0,1-2-7.44,14.27,14.27,0,0,1,2-7.44,13.75,13.75,0,0,1,5.49-5.14A16.6,16.6,0,0,1,81,23.59a17.14,17.14,0,0,1,6.66,1.24,13.14,13.14,0,0,1,5,3.59l-4.15,3.83a9.6,9.6,0,0,0-7.22-3.15,9.91,9.91,0,0,0-4.75,1.11,8.09,8.09,0,0,0-3.23,3.15A9.32,9.32,0,0,0,72.2,38a9.23,9.23,0,0,0,1.16,4.63,8.15,8.15,0,0,0,3.21,3.17A9.5,9.5,0,0,0,81.26,47a10.4,10.4,0,0,0,5-1.2Z"/><path class="cls-2" d="M115.65,52l-5.39-7.78h-5.94V52H97.85V24.07h12.09a15.46,15.46,0,0,1,6.45,1.24,9.48,9.48,0,0,1,4.2,3.51,9.6,9.6,0,0,1,1.48,5.38A9.11,9.11,0,0,1,116.33,43l6.26,9ZM114,30.59a6.78,6.78,0,0,0-4.43-1.25h-5.26v9.73h5.26A6.73,6.73,0,0,0,114,37.79a4.43,4.43,0,0,0,1.52-3.59A4.43,4.43,0,0,0,114,30.59Z"/><path class="cls-2" d="M145.25,46h-13l-2.47,6h-6.62l12.44-27.93H142L154.5,52h-6.78Zm-2-4.91-4.42-10.69L134.36,41.1Z"/><path class="cls-2" d="M175.63,25.31a9.56,9.56,0,0,1,4.21,3.51,9.68,9.68,0,0,1,1.47,5.38,9.74,9.74,0,0,1-1.47,5.37,9.43,9.43,0,0,1-4.21,3.51,15.74,15.74,0,0,1-6.44,1.22h-5.63V52H157.1V24.07h12.09A15.42,15.42,0,0,1,175.63,25.31Zm-2.37,12.46a4.35,4.35,0,0,0,1.51-3.57,4.42,4.42,0,0,0-1.51-3.61,6.8,6.8,0,0,0-4.43-1.25h-5.27V39h5.27A6.8,6.8,0,0,0,173.26,37.77Z"/><path class="cls-2" d="M207.21,46.81V52H185.58V24.07h21.11v5.19H192v6.06h13v5H192v6.46Z"/></g></g></svg>