<svg xmlns="http://www.w3.org/2000/svg" viewBox="0 0 298 242.19"><defs><style>.cls-1{fill:#fff;}</style></defs><title>layer1</title><g id="Ebene_2" data-name="Ebene 2"><g id="svg3626"><g id="layer1"><path id="path3611" class="cls-1" d="M93.72,242.19c112.46,0,174-93.17,174-174q0-4-.18-7.9A124.24,124.24,0,0,0,298,28.67a121.56,121.56,0,0,1-35.11,9.62A61.41,61.41,0,0,0,289.78,4.48,122.83,122.83,0,0,1,251,19.32,61.2,61.2,0,0,0,146.76,75.07a173.54,173.54,0,0,1-126-63.88A61.2,61.2,0,0,0,39.67,92.82,60.71,60.71,0,0,1,12,85.17c0,.26,0,.51,0,.78A61.15,61.15,0,0,0,61,145.88,61.24,61.24,0,0,1,44.9,148a60.33,60.33,0,0,1-11.49-1.11A61.2,61.2,0,0,0,90.52,189.4a122.66,122.66,0,0,1-75.94,26.17A123.41,123.41,0,0,1,0,214.72a173,173,0,0,0,93.72,27.47"/></g></g></g></svg>